<?xml version="1.0" standalone="no"?>
<!DOCTYPE svg PUBLIC "-//W3C//DTD SVG 20010904//EN"
 "http://www.w3.org/TR/2001/REC-SVG-20010904/DTD/svg10.dtd">
<svg version="1.0" xmlns="http://www.w3.org/2000/svg"
 width="512.000000pt" height="512.000000pt" viewBox="0 0 512.000000 512.000000"
 preserveAspectRatio="xMidYMid meet">
<metadata>
Created by potrace 1.14, written by Peter Selinger 2001-2017
</metadata>
<g transform="translate(0.000000,512.000000) scale(0.100000,-0.100000)"
fill="#000000" stroke="none">
<path d="M724 5105 c-12 -8 -31 -38 -43 -67 -12 -29 -26 -62 -31 -73 -5 -11
-23 -56 -40 -100 -17 -44 -37 -94 -45 -112 -8 -17 -15 -34 -15 -38 0 -4 -7
-21 -15 -38 -8 -18 -28 -68 -45 -112 -17 -44 -35 -89 -40 -100 -5 -11 -86
-213 -180 -450 -94 -236 -175 -439 -180 -450 -5 -11 -27 -65 -48 -120 l-39
-100 1 -1648 1 -1649 28 -24 28 -24 2510 2 2510 3 19 25 c19 24 20 63 20 1673
l0 1647 -348 869 c-297 744 -351 872 -374 885 -23 14 -206 16 -1840 16 -1572
0 -1816 -2 -1834 -15z m3878 -919 c185 -464 301 -766 294 -768 -9 -4 -333 -3
-361 1 -6 1 -10 49 -9 123 1 210 -4 214 -203 213 -73 0 -134 2 -134 5 -1 3 -2
67 -3 143 -2 135 -3 138 -29 164 -22 22 -35 27 -82 27 -30 1 -56 3 -57 6 0 3
-2 65 -3 138 -2 149 -11 176 -59 191 -19 6 -577 9 -1413 8 l-1382 -2 -23 -23
c-22 -21 -23 -32 -25 -163 -1 -77 -4 -143 -7 -148 -3 -4 -24 -7 -48 -6 -44 2
-90 -14 -105 -37 -4 -7 -10 -78 -13 -158 l-5 -145 -125 -1 c-166 -2 -157 -1
-185 -29 -24 -23 -25 -29 -25 -167 l0 -143 -184 0 c-101 0 -187 3 -191 6 -5 5
141 385 185 484 5 11 23 56 40 100 17 44 35 89 40 100 5 11 77 191 160 400 83
209 158 395 166 413 l15 32 1732 0 1733 0 306 -764z m-761 55 c3 -64 1 -133
-4 -137 -3 -4 -1805 -7 -2458 -4 l-96 0 0 83 0 83 1278 0 1279 0 1 -25z m170
-331 c5 -85 2 -135 -7 -144 -7 -8 -430 -11 -1440 -9 -786 1 -1435 2 -1441 2
-9 1 -13 24 -13 79 0 43 2 81 4 83 2 2 655 4 1450 4 1278 0 1446 -2 1447 -15z
m334 -330 c11 0 14 -144 3 -156 -6 -5 -3418 -10 -3555 -5 -22 1 -23 5 -23 79
0 43 2 81 4 83 3 3 3498 2 3571 -1z m605 -1875 l0 -1535 -2388 0 -2389 0 0
1535 0 1535 2389 0 2388 0 0 -1535z"/>
<path d="M1842 2708 c-177 -70 -266 -284 -188 -454 14 -30 32 -61 40 -69 8 -8
16 -19 18 -23 1 -5 25 -25 51 -45 90 -69 78 -68 802 -67 358 0 664 4 680 8
117 35 208 123 242 236 20 67 11 183 -21 244 -35 70 -95 128 -165 161 l-56 26
-675 2 c-662 2 -676 1 -728 -19z m1411 -178 c43 -29 77 -91 77 -140 0 -55 -36
-117 -85 -145 l-42 -25 -650 2 -650 3 -37 29 c-90 68 -92 203 -4 269 18 14 42
27 53 30 11 3 308 4 661 3 l640 -1 37 -25z"/>
</g>
</svg>
